<svg width="32" height="32" viewBox="0 0 32 32" fill="none" xmlns="http://www.w3.org/2000/svg">
  <rect width="32" height="32" rx="6" fill="url(#gradient)"/>
  <!-- Bóng đèn -->
  <path d="M16 8C12.6863 8 10 10.6863 10 14C10 16.5 11.5 18.5 13 20V22C13 22.5523 13.4477 23 14 23H18C18.5523 23 19 22.5523 19 22V20C20.5 18.5 22 16.5 22 14C22 10.6863 19.3137 8 16 8Z" fill="white" fill-opacity="0.95"/>
  <!-- Ánh sáng -->
  <circle cx="16" cy="16" r="4" fill="#FFD700" opacity="0.8"/>
  <!-- Đế bóng đèn -->
  <rect x="13" y="22" width="6" height="2" rx="1" fill="white" fill-opacity="0.9"/>
  <rect x="14" y="24" width="4" height="1" rx="0.5" fill="white" fill-opacity="0.7"/>
  <!-- Tia sáng -->
  <path d="M16 4L16 8M8 16L10 16M22 16L24 16M16 24L16 26" stroke="#FFD700" stroke-width="1.5" stroke-linecap="round" opacity="0.6"/>
  <path d="M9.5 9.5L11.5 11.5M20.5 9.5L18.5 11.5M9.5 22.5L11.5 20.5M20.5 22.5L18.5 20.5" stroke="#FFD700" stroke-width="1.5" stroke-linecap="round" opacity="0.5"/>
  <defs>
    <linearGradient id="gradient" x1="0" y1="0" x2="32" y2="32" gradientUnits="userSpaceOnUse">
      <stop stop-color="#FFD700"/>
      <stop offset="1" stop-color="#FFA500"/>
    </linearGradient>
  </defs>
</svg>
